<svg id="Group_1544" data-name="Group 1544" xmlns="http://www.w3.org/2000/svg" xmlns:xlink="http://www.w3.org/1999/xlink" width="25" height="24.992" viewBox="0 0 25 24.992">
  <defs>
    <clipPath id="clip-path">
      <rect id="Rectangle_952" data-name="Rectangle 952" width="25" height="24.992" fill="#0258c4"/>
    </clipPath>
  </defs>
  <g id="Group_1533" data-name="Group 1533" clip-path="url(#clip-path)">
    <path id="Path_2664" data-name="Path 2664" d="M6.783,24.992h-.1L4.952,20.065,0,18.307v-.049l2.377-2.333,3.379.505,5.223-5.418L.587,4.571,3.173,1.985,15.73,6.063l4.764-5.007A2.472,2.472,0,0,1,24.972,2.85a3.058,3.058,0,0,1-1.084,1.7C22.62,5.813,21.263,7,19.981,8.254c-.353.345-.7.7-1.038,1.057l4.065,12.509-2.586,2.586L13.981,14.014,8.562,19.236c.12,1.148.406,2.283.5,3.428Z" transform="translate(0 0)" fill="#0258c4"/>
  </g>
</svg>
