<svg id="Group_1511" data-name="Group 1511" xmlns="http://www.w3.org/2000/svg" width="59" height="59" viewBox="0 0 59 59">
  <circle id="Ellipse_16" data-name="Ellipse 16" cx="29.5" cy="29.5" r="29.5" fill="#00a8ff" opacity="0.1"/>
  <path id="Union_1" data-name="Union 1" d="M23.433.179a.5.5,0,0,0,.062.7l4.631,3.88H.5a.5.5,0,1,0,0,1H28.124L23.494,9.642a.5.5,0,0,0,.642.767L29.81,5.656l.017-.014,0,0,.006-.006.023-.022h0l.007-.007,0,0,0,0a.5.5,0,0,0,.089-.14.5.5,0,0,0-.04-.464.48.48,0,0,0-.038-.051h0l0,0-.006-.007-.006-.007,0,0-.008-.008h0c-.012-.012-.025-.024-.038-.035L24.136.117a.5.5,0,0,0-.7.063Z" transform="translate(44 34.525) rotate(180)"/>
</svg>
