<svg id="Group_1510" data-name="Group 1510" xmlns="http://www.w3.org/2000/svg" width="59" height="59" viewBox="0 0 59 59">
  <circle id="Ellipse_16" data-name="Ellipse 16" cx="29.5" cy="29.5" r="29.5" fill="#00a8ff" opacity="0.1"/>
  <path id="Union_1" data-name="Union 1" d="M23.433,10.346a.5.5,0,0,1,.062-.7l4.631-3.88H.5a.5.5,0,1,1,0-1H28.124L23.494.883a.5.5,0,0,1,.642-.767L29.81,4.87l.017.014,0,0,.006.006.023.022h0l.007.007,0,0,0,0a.5.5,0,0,1,.089.14.5.5,0,0,1-.04.464.48.48,0,0,1-.038.051h0l0,0-.006.007-.006.007,0,0-.008.008h0c-.012.012-.025.024-.038.035l-5.685,4.762a.5.5,0,0,1-.7-.062Z" transform="translate(15 24)"/>
</svg>
